<svg width="32" height="32" viewBox="0 0 32 32" fill="none" xmlns="http://www.w3.org/2000/svg">
<g clip-path="url(#clip0_368_2)">
<circle cx="16" cy="16" r="16" fill="#01D3AC"/>
<path d="M6.2417 12.0566C6.2417 11.7881 6.29215 11.5374 6.39307 11.3047C6.49398 11.0703 6.64128 10.8669 6.83496 10.6943C7.02865 10.5218 7.26628 10.3859 7.54785 10.2866C7.83105 10.1873 8.15495 10.1377 8.51953 10.1377C8.65137 10.1377 8.7832 10.145 8.91504 10.1597C9.0485 10.1727 9.17952 10.1938 9.30811 10.2231C9.43831 10.2524 9.56445 10.2899 9.68652 10.3354C9.81022 10.3794 9.92741 10.4323 10.0381 10.4941L9.68164 11.0801C9.61491 11.041 9.53923 11.006 9.45459 10.9751C9.36995 10.9425 9.27881 10.9157 9.18115 10.8945C9.08512 10.8717 8.98503 10.8547 8.88086 10.8433C8.77832 10.8319 8.67497 10.8262 8.5708 10.8262C8.32992 10.8262 8.11507 10.8571 7.92627 10.9189C7.73747 10.9792 7.57796 11.0646 7.44775 11.1753C7.31755 11.2843 7.21826 11.4154 7.1499 11.5684C7.08154 11.7214 7.04736 11.889 7.04736 12.0713C7.04736 12.2601 7.08317 12.4334 7.15479 12.5913C7.2264 12.7492 7.32812 12.8851 7.45996 12.999C7.5918 13.113 7.7513 13.2025 7.93848 13.2676C8.12565 13.3311 8.3348 13.3628 8.56592 13.3628C8.74984 13.3628 8.91829 13.3424 9.07129 13.3018C9.22428 13.2594 9.35775 13.2 9.47168 13.1235C9.58561 13.047 9.67839 12.9551 9.75 12.8477C9.82161 12.7386 9.86882 12.6165 9.8916 12.4814H8.55859V11.8442H10.5874V11.8467L10.5898 11.8442C10.6305 12.0396 10.6427 12.23 10.6265 12.4155C10.6118 12.5994 10.5695 12.7736 10.4995 12.938C10.4312 13.1007 10.3368 13.2505 10.2163 13.3872C10.0959 13.5239 9.95182 13.6419 9.78418 13.7412C9.61654 13.8389 9.42611 13.9154 9.21289 13.9707C8.99967 14.0244 8.76611 14.0513 8.51221 14.0513C8.15739 14.0513 7.83919 13.9992 7.55762 13.895C7.27767 13.7909 7.04004 13.6484 6.84473 13.4678C6.64941 13.2871 6.49967 13.0755 6.39551 12.833C6.29297 12.5905 6.2417 12.3317 6.2417 12.0566ZM11.4126 11.1191H12.1353V11.5342C12.2948 11.4154 12.4632 11.3128 12.6406 11.2266C12.818 11.1403 12.9946 11.0744 13.1704 11.0288L13.3828 11.6904C13.1045 11.7181 12.8595 11.7808 12.6479 11.8784C12.438 11.9744 12.2671 12.1104 12.1353 12.2861V14H11.4126V11.1191ZM13.7856 12.5498C13.7856 12.3545 13.8255 12.1681 13.9053 11.9907C13.985 11.8117 14.0998 11.6538 14.2495 11.5171C14.3993 11.3804 14.5824 11.2713 14.7988 11.1899C15.0169 11.1086 15.2643 11.0679 15.541 11.0679C15.8161 11.0679 16.0635 11.1094 16.2832 11.1924C16.5046 11.2738 16.6917 11.3861 16.8447 11.5293C16.9993 11.6725 17.1174 11.841 17.1987 12.0347C17.2817 12.2284 17.3232 12.4359 17.3232 12.6572C17.3232 12.6849 17.3224 12.715 17.3208 12.7476C17.3208 12.7785 17.3192 12.807 17.3159 12.833H14.5913C14.6222 12.9193 14.6719 12.9982 14.7402 13.0698C14.8102 13.1414 14.8973 13.2033 15.0015 13.2554C15.1056 13.3075 15.2261 13.3481 15.3628 13.3774C15.4995 13.4051 15.6509 13.4189 15.8169 13.4189C15.9829 13.4189 16.1481 13.4019 16.3125 13.3677C16.4769 13.3319 16.634 13.2871 16.7837 13.2334L17.0278 13.7852C16.9334 13.8291 16.8374 13.8682 16.7397 13.9023C16.6437 13.9349 16.5428 13.9626 16.437 13.9854C16.3328 14.0065 16.223 14.0228 16.1074 14.0342C15.9935 14.0456 15.873 14.0513 15.7461 14.0513C15.4222 14.0513 15.1382 14.0122 14.894 13.9341C14.6499 13.856 14.4456 13.7493 14.2812 13.6143C14.1169 13.4792 13.9932 13.3205 13.9102 13.1382C13.8271 12.9559 13.7856 12.7598 13.7856 12.5498ZM16.5566 12.269C16.5306 12.1893 16.4899 12.1152 16.4346 12.0469C16.3809 11.9769 16.3133 11.9167 16.2319 11.8662C16.1506 11.8141 16.0562 11.7734 15.9487 11.7441C15.8413 11.7148 15.7233 11.7002 15.5947 11.7002C15.458 11.7002 15.3335 11.7157 15.2212 11.7466C15.1089 11.7775 15.0104 11.819 14.9258 11.8711C14.8411 11.9232 14.7703 11.9834 14.7134 12.0518C14.658 12.1201 14.6174 12.1925 14.5913 12.269H16.5566ZM17.9653 12.5498C17.9653 12.3545 18.0052 12.1681 18.085 11.9907C18.1647 11.8117 18.2795 11.6538 18.4292 11.5171C18.5789 11.3804 18.762 11.2713 18.9785 11.1899C19.1966 11.1086 19.444 11.0679 19.7207 11.0679C19.9958 11.0679 20.2432 11.1094 20.4629 11.1924C20.6842 11.2738 20.8714 11.3861 21.0244 11.5293C21.179 11.6725 21.297 11.841 21.3784 12.0347C21.4614 12.2284 21.5029 12.4359 21.5029 12.6572C21.5029 12.6849 21.5021 12.715 21.5005 12.7476C21.5005 12.7785 21.4989 12.807 21.4956 12.833H18.771C18.8019 12.9193 18.8516 12.9982 18.9199 13.0698C18.9899 13.1414 19.077 13.2033 19.1812 13.2554C19.2853 13.3075 19.4058 13.3481 19.5425 13.3774C19.6792 13.4051 19.8306 13.4189 19.9966 13.4189C20.1626 13.4189 20.3278 13.4019 20.4922 13.3677C20.6566 13.3319 20.8136 13.2871 20.9634 13.2334L21.2075 13.7852C21.1131 13.8291 21.0171 13.8682 20.9194 13.9023C20.8234 13.9349 20.7225 13.9626 20.6167 13.9854C20.5125 14.0065 20.4027 14.0228 20.2871 14.0342C20.1732 14.0456 20.0527 14.0513 19.9258 14.0513C19.6019 14.0513 19.3179 14.0122 19.0737 13.9341C18.8296 13.856 18.6253 13.7493 18.4609 13.6143C18.2965 13.4792 18.1729 13.3205 18.0898 13.1382C18.0068 12.9559 17.9653 12.7598 17.9653 12.5498ZM20.7363 12.269C20.7103 12.1893 20.6696 12.1152 20.6143 12.0469C20.5605 11.9769 20.493 11.9167 20.4116 11.8662C20.3302 11.8141 20.2358 11.7734 20.1284 11.7441C20.021 11.7148 19.903 11.7002 19.7744 11.7002C19.6377 11.7002 19.5132 11.7157 19.4009 11.7466C19.2886 11.7775 19.1901 11.819 19.1055 11.8711C19.0208 11.9232 18.95 11.9834 18.8931 12.0518C18.8377 12.1201 18.797 12.1925 18.771 12.269H20.7363ZM22.2817 11.1191H23.0044V11.3633C23.1965 11.2542 23.3796 11.1777 23.5537 11.1338C23.7295 11.0898 23.9012 11.0679 24.0688 11.0679C24.2886 11.0679 24.492 11.1004 24.6792 11.1655C24.8664 11.229 25.0283 11.3242 25.165 11.4512C25.3018 11.5781 25.4084 11.7368 25.4849 11.9272C25.563 12.116 25.6021 12.335 25.6021 12.584V14H24.8818V12.7012C24.8818 12.5433 24.859 12.4025 24.8135 12.2788C24.7695 12.1535 24.7052 12.0485 24.6206 11.9639C24.5376 11.8776 24.4359 11.8125 24.3154 11.7686C24.1966 11.723 24.0632 11.7002 23.915 11.7002C23.8369 11.7002 23.7563 11.7083 23.6733 11.7246C23.592 11.7409 23.5114 11.7645 23.4316 11.7954C23.3535 11.8247 23.2778 11.8621 23.2046 11.9077C23.1313 11.9517 23.0646 12.0021 23.0044 12.0591V14H22.2817V11.1191ZM5.90234 18.8647C6.04069 18.9429 6.18066 19.0137 6.32227 19.0771C6.46549 19.139 6.61361 19.1919 6.7666 19.2358C6.9196 19.2782 7.07992 19.3107 7.24756 19.3335C7.41683 19.3563 7.59668 19.3677 7.78711 19.3677C8.0166 19.3677 8.21191 19.353 8.37305 19.3237C8.53418 19.2928 8.6652 19.2513 8.76611 19.1992C8.86865 19.1455 8.94271 19.082 8.98828 19.0088C9.03548 18.9355 9.05908 18.8558 9.05908 18.7695C9.05908 18.6312 9.0013 18.5221 8.88574 18.4424C8.77018 18.361 8.59196 18.3203 8.35107 18.3203C8.24528 18.3203 8.13379 18.3276 8.0166 18.3423C7.89941 18.3553 7.7806 18.37 7.66016 18.3862C7.54134 18.4025 7.42334 18.418 7.30615 18.4326C7.19059 18.4456 7.08154 18.4521 6.979 18.4521C6.80811 18.4521 6.64372 18.4302 6.48584 18.3862C6.32959 18.3423 6.19043 18.2764 6.06836 18.1885C5.94792 18.1006 5.85189 17.9907 5.78027 17.8589C5.70866 17.7271 5.67285 17.5732 5.67285 17.3975C5.67285 17.2933 5.68669 17.1899 5.71436 17.0874C5.74365 16.9849 5.78923 16.8872 5.85107 16.7944C5.91455 16.7 5.99593 16.613 6.09521 16.5332C6.1945 16.4518 6.31413 16.3818 6.4541 16.3232C6.5957 16.2646 6.75846 16.2191 6.94238 16.1865C7.12793 16.1523 7.3387 16.1353 7.57471 16.1353C7.74561 16.1353 7.91732 16.145 8.08984 16.1646C8.26237 16.1825 8.43001 16.2085 8.59277 16.2427C8.75716 16.2769 8.91504 16.3184 9.06641 16.3672C9.21777 16.4144 9.35856 16.4673 9.48877 16.5259L9.14941 17.1509C9.04199 17.1037 8.92643 17.0605 8.80273 17.0215C8.67904 16.9808 8.54964 16.9458 8.41455 16.9165C8.27946 16.8872 8.13949 16.8644 7.99463 16.8481C7.8514 16.8302 7.70492 16.8213 7.55518 16.8213C7.34196 16.8213 7.16618 16.8368 7.02783 16.8677C6.89111 16.8986 6.78206 16.9385 6.70068 16.9873C6.6193 17.0345 6.56234 17.0882 6.52979 17.1484C6.49886 17.207 6.4834 17.2656 6.4834 17.3242C6.4834 17.4382 6.53467 17.5317 6.63721 17.605C6.73975 17.6766 6.896 17.7124 7.10596 17.7124C7.19059 17.7124 7.28743 17.7067 7.39648 17.6953C7.50716 17.6823 7.62272 17.6685 7.74316 17.6538C7.86523 17.6392 7.98893 17.6261 8.11426 17.6147C8.24121 17.6017 8.3641 17.5952 8.48291 17.5952C8.70752 17.5952 8.90609 17.6204 9.07861 17.6709C9.25277 17.7214 9.39844 17.7938 9.51562 17.8882C9.63281 17.981 9.72152 18.0941 9.78174 18.2275C9.84196 18.3594 9.87207 18.5075 9.87207 18.6719C9.87207 18.8916 9.8208 19.0877 9.71826 19.2603C9.61735 19.4312 9.47249 19.576 9.28369 19.6948C9.09652 19.812 8.87028 19.9015 8.60498 19.9634C8.33968 20.0236 8.04427 20.0537 7.71875 20.0537C7.50391 20.0537 7.29395 20.0399 7.08887 20.0122C6.88379 19.9862 6.68685 19.9487 6.49805 19.8999C6.31087 19.8494 6.13184 19.79 5.96094 19.7217C5.79167 19.6517 5.6346 19.5752 5.48975 19.4922L5.90234 18.8647ZM10.4971 19.0918C10.4971 18.9535 10.5272 18.8273 10.5874 18.7134C10.6476 18.5994 10.738 18.5018 10.8584 18.4204C10.9788 18.3374 11.1286 18.2739 11.3076 18.23C11.4883 18.1844 11.6982 18.1616 11.9375 18.1616C12.1149 18.1616 12.3013 18.1746 12.4966 18.2007C12.6935 18.2267 12.8962 18.2666 13.1045 18.3203C13.0964 18.2292 13.0687 18.1453 13.0215 18.0688C12.9743 17.9907 12.9084 17.924 12.8237 17.8687C12.7407 17.8117 12.6398 17.7677 12.521 17.7368C12.4038 17.7059 12.2703 17.6904 12.1206 17.6904C12.0392 17.6904 11.9497 17.6953 11.8521 17.7051C11.7544 17.7148 11.6535 17.7295 11.5493 17.749C11.4451 17.7686 11.3418 17.793 11.2393 17.8223C11.1383 17.8516 11.0439 17.8866 10.9561 17.9272L10.7363 17.334C10.8454 17.2949 10.9618 17.2591 11.0854 17.2266C11.2108 17.194 11.3385 17.1663 11.4688 17.1436C11.599 17.1191 11.7292 17.1004 11.8594 17.0874C11.9896 17.0744 12.1157 17.0679 12.2378 17.0679C12.7765 17.0679 13.1769 17.2054 13.439 17.4805C13.701 17.7555 13.832 18.1771 13.832 18.7451V20H13.1094V19.729C13.0345 19.7729 12.9523 19.8145 12.8628 19.8535C12.7749 19.8926 12.6789 19.9268 12.5747 19.9561C12.4705 19.9854 12.3582 20.0081 12.2378 20.0244C12.119 20.0423 11.9928 20.0513 11.8594 20.0513C11.6348 20.0513 11.437 20.0269 11.2661 19.978C11.0968 19.9292 10.9552 19.8617 10.8413 19.7754C10.7274 19.6891 10.6411 19.5882 10.5825 19.4727C10.5256 19.3555 10.4971 19.2285 10.4971 19.0918ZM11.2588 19.0674C11.2588 19.1146 11.271 19.1602 11.2954 19.2041C11.3198 19.2464 11.3589 19.2847 11.4126 19.3188C11.4663 19.3514 11.5347 19.3783 11.6177 19.3994C11.7023 19.4189 11.804 19.4287 11.9229 19.4287C12.0498 19.4287 12.1727 19.4173 12.2915 19.3945C12.4103 19.3717 12.521 19.3416 12.6235 19.3042C12.7261 19.2668 12.8188 19.2236 12.9019 19.1748C12.9849 19.126 13.054 19.0755 13.1094 19.0234V18.8965C12.9987 18.8656 12.8888 18.8395 12.7798 18.8184C12.6724 18.7972 12.569 18.7809 12.4697 18.7695C12.3721 18.7565 12.2793 18.7476 12.1914 18.7427C12.1051 18.7378 12.0295 18.7354 11.9644 18.7354C11.8293 18.7354 11.717 18.7443 11.6274 18.7622C11.5379 18.7801 11.4655 18.8045 11.4102 18.8354C11.3548 18.8647 11.3158 18.8997 11.293 18.9404C11.2702 18.9811 11.2588 19.0234 11.2588 19.0674ZM14.8086 15.9497H15.5312V20H14.8086V15.9497ZM16.3223 19.0918C16.3223 18.9535 16.3524 18.8273 16.4126 18.7134C16.4728 18.5994 16.5632 18.5018 16.6836 18.4204C16.804 18.3374 16.9538 18.2739 17.1328 18.23C17.3135 18.1844 17.5234 18.1616 17.7627 18.1616C17.9401 18.1616 18.1265 18.1746 18.3218 18.2007C18.5187 18.2267 18.7214 18.2666 18.9297 18.3203C18.9215 18.2292 18.8939 18.1453 18.8467 18.0688C18.7995 17.9907 18.7336 17.924 18.6489 17.8687C18.5659 17.8117 18.465 17.7677 18.3462 17.7368C18.229 17.7059 18.0955 17.6904 17.9458 17.6904C17.8644 17.6904 17.7749 17.6953 17.6772 17.7051C17.5796 17.7148 17.4787 17.7295 17.3745 17.749C17.2703 17.7686 17.167 17.793 17.0645 17.8223C16.9635 17.8516 16.8691 17.8866 16.7812 17.9272L16.5615 17.334C16.6706 17.2949 16.7869 17.2591 16.9106 17.2266C17.036 17.194 17.1637 17.1663 17.2939 17.1436C17.4242 17.1191 17.5544 17.1004 17.6846 17.0874C17.8148 17.0744 17.9409 17.0679 18.063 17.0679C18.6017 17.0679 19.0021 17.2054 19.2642 17.4805C19.5262 17.7555 19.6572 18.1771 19.6572 18.7451V20H18.9346V19.729C18.8597 19.7729 18.7775 19.8145 18.688 19.8535C18.6001 19.8926 18.5041 19.9268 18.3999 19.9561C18.2957 19.9854 18.1834 20.0081 18.063 20.0244C17.9442 20.0423 17.818 20.0513 17.6846 20.0513C17.46 20.0513 17.2622 20.0269 17.0913 19.978C16.922 19.9292 16.7804 19.8617 16.6665 19.7754C16.5526 19.6891 16.4663 19.5882 16.4077 19.4727C16.3507 19.3555 16.3223 19.2285 16.3223 19.0918ZM17.084 19.0674C17.084 19.1146 17.0962 19.1602 17.1206 19.2041C17.145 19.2464 17.1841 19.2847 17.2378 19.3188C17.2915 19.3514 17.3599 19.3783 17.4429 19.3994C17.5275 19.4189 17.6292 19.4287 17.748 19.4287C17.875 19.4287 17.9979 19.4173 18.1167 19.3945C18.2355 19.3717 18.3462 19.3416 18.4487 19.3042C18.5513 19.2668 18.644 19.2236 18.7271 19.1748C18.8101 19.126 18.8792 19.0755 18.9346 19.0234V18.8965C18.8239 18.8656 18.714 18.8395 18.605 18.8184C18.4976 18.7972 18.3942 18.7809 18.2949 18.7695C18.1973 18.7565 18.1045 18.7476 18.0166 18.7427C17.9303 18.7378 17.8547 18.7354 17.7896 18.7354C17.6545 18.7354 17.5422 18.7443 17.4526 18.7622C17.3631 18.7801 17.2907 18.8045 17.2354 18.8354C17.18 18.8647 17.141 18.8997 17.1182 18.9404C17.0954 18.9811 17.084 19.0234 17.084 19.0674ZM20.6143 17.1191H21.3369V17.5342C21.4964 17.4154 21.6649 17.3128 21.8423 17.2266C22.0197 17.1403 22.1963 17.0744 22.3721 17.0288L22.5845 17.6904C22.3062 17.7181 22.0612 17.7808 21.8496 17.8784C21.6396 17.9744 21.4688 18.1104 21.3369 18.2861V20H20.6143V17.1191ZM23.4683 20.3613C23.5431 20.4102 23.6245 20.4533 23.7124 20.4907C23.8003 20.5282 23.8914 20.5591 23.9858 20.5835C24.0819 20.6079 24.1795 20.6258 24.2788 20.6372C24.3781 20.6502 24.4766 20.6567 24.5742 20.6567C24.9062 20.6567 25.1618 20.5851 25.3408 20.4419C25.5215 20.3003 25.6118 20.0871 25.6118 19.8022V19.7046C25.5483 19.7485 25.4767 19.7892 25.397 19.8267C25.3188 19.8625 25.2342 19.8934 25.1431 19.9194C25.0535 19.9455 24.9583 19.9658 24.8574 19.9805C24.7581 19.9935 24.6572 20 24.5547 20C24.335 20 24.138 19.9683 23.9639 19.9048C23.7913 19.8397 23.6449 19.7453 23.5244 19.6216C23.4056 19.4963 23.3145 19.3424 23.251 19.1602C23.1875 18.9779 23.1558 18.7695 23.1558 18.5352V17.1191H23.876V18.335C23.876 18.6833 23.9419 18.9404 24.0737 19.1064C24.2072 19.2708 24.4172 19.353 24.7036 19.353C24.9054 19.353 25.0837 19.318 25.2383 19.248C25.3945 19.1764 25.519 19.0853 25.6118 18.9746V17.1191H26.3345V19.6704C26.3345 19.9455 26.2954 20.1839 26.2173 20.3857C26.1392 20.5892 26.0252 20.7576 25.8755 20.8911C25.7274 21.0246 25.5451 21.1239 25.3286 21.189C25.1121 21.2557 24.8664 21.2891 24.5913 21.2891C24.3228 21.2891 24.0721 21.2606 23.8394 21.2036C23.6066 21.1466 23.3934 21.0693 23.1997 20.9717L23.4683 20.3613Z" fill="white"/>
</g>
<defs>
<clipPath id="clip0_368_2">
<rect width="32" height="32" fill="white"/>
</clipPath>
</defs>
</svg>
